# Blender v2.79 (sub 0) OBJ File: ''
# www.blender.org
mtllib star.mtl
o Cube.002_Cube.004
v -0.549469 0.023042 0.664505
v -1.590366 0.517227 0.041401
v -1.027412 -0.348228 0.192345
v -0.034543 0.023043 -0.645258
v 0.260665 -0.555974 -0.645258
v -0.030235 -0.555974 -0.645258
v -0.030235 -0.555974 0.664505
v -0.321135 -0.555974 0.664505
v -0.030235 -1.042802 0.192345
v -0.051775 0.404948 0.664505
v 0.501925 0.883159 0.192345
v -0.051775 1.684485 0.041401
v -0.086338 0.404948 0.664505
v -0.622709 0.926241 0.192345
v -0.034543 0.023042 0.664505
v -0.013623 0.404948 -0.645258
v -0.051775 0.404948 -0.645258
v -0.086338 0.404948 -0.645258
v -0.549469 0.023043 -0.645258
v 0.501925 0.883159 -0.173097
v 0.260665 -0.555974 0.664505
v 0.480385 0.023042 0.664505
v -0.051775 1.684485 -0.022153
v -0.622709 0.926241 -0.173097
v 0.958490 -0.397021 -0.173097
v 0.919822 -1.271136 -0.022153
v 1.541170 0.551152 0.041401
v 0.958490 -0.397021 0.192345
v 1.541170 0.551152 -0.022153
v -1.590366 0.517227 -0.022153
v 0.480385 0.023043 -0.645258
v -0.975981 -1.331451 -0.022153
v -1.027412 -0.348228 -0.173097
v -0.321135 -0.555974 -0.645258
v -0.975981 -1.331451 0.041401
v -0.013623 0.404948 0.664505
v -0.030235 -1.042802 -0.173097
v 0.919822 -1.271136 0.041401
vt 0.438270 0.840483
vt 0.314650 1.000000
vt 0.344597 0.799146
vt 0.307899 0.334667
vt 0.248781 0.446611
vt 0.215621 0.398956
vt 0.045972 0.843819
vt 0.005642 0.801942
vt 0.110911 0.775213
vt 0.769257 0.355693
vt 0.928830 0.320476
vt 1.000000 0.504884
vt 0.765402 0.361362
vt 0.810142 0.509994
vt 0.653871 0.392689
vt 0.711306 0.308222
vt 0.371473 0.296157
vt 0.367124 0.289907
vt 0.363184 0.284245
vt 0.249202 0.250311
vt 0.519312 0.308761
vt 0.588564 0.287548
vt 0.621011 0.239829
vt 0.653459 0.192111
vt 0.768742 0.223755
vt 0.823217 0.620820
vt 0.780662 0.730489
vt 0.810608 0.620820
vt 0.581888 0.831209
vt 0.518763 0.979183
vt 0.510070 0.821121
vt 0.398016 0.119791
vt 0.588564 0.123876
vt 0.366247 0.524134
vt 0.225769 0.607604
vt 1.000000 0.111097
vt 0.779056 0.095932
vt 0.497584 0.993258
vt 0.510070 0.772351
vt 0.510070 0.991482
vt 0.226160 0.000000
vt 0.438270 0.715346
vt 0.366597 0.419023
vt 0.588564 0.509286
vt 0.000000 0.303655
vt 0.147688 0.193443
vt 0.182460 0.351300
vt 0.302042 1.000000
vt 0.708161 0.781418
vt 0.750716 0.620820
vt 0.780662 0.781418
vt 0.438270 0.782565
vt 0.457097 0.607604
vt 0.314650 0.607604
vt 0.272095 0.799146
vt 0.302042 0.607604
vt 0.773513 0.349434
vt 0.569398 0.607604
vt 0.162751 0.723751
vt 0.263080 0.889733
vt 0.009015 0.607604
vt 0.000000 0.616554
vt 0.086301 0.885697
vt 0.231766 0.659376
vt 0.272095 0.701254
vt 0.191437 0.617498
vt 0.645388 0.620820
vt 0.645005 0.000000
vt 0.588564 0.694145
vt 0.708161 0.620820
vt 0.708161 0.809947
vt 0.272095 0.880783
vt 0.853163 0.730489
vt 0.531252 0.980938
vt 0.738107 0.620820
vt 0.444611 0.609381
vt 0.581888 0.609359
vn -0.5809 -0.2409 0.7775
vn -0.5803 -0.2419 0.7776
vn -0.5859 -0.2329 0.7762
vn 0.0000 0.0000 -1.0000
vn 0.0000 -0.6962 0.7178
vn 0.3622 0.4081 0.8380
vn -0.3411 0.4136 0.8441
vn 0.0000 -0.0000 1.0000
vn 0.0000 0.7026 -0.7116
vn -0.7989 0.6015 0.0000
vn 0.8227 0.5685 0.0000
vn -0.3251 0.4140 -0.8502
vn 0.0000 0.6713 0.7412
vn 0.5781 -0.1636 -0.7994
vn 0.2694 0.4582 0.8470
vn 0.5755 -0.2279 0.7854
vn 0.5806 -0.2203 0.7839
vn 0.5798 -0.2214 0.7841
vn 0.8520 -0.5236 -0.0000
vn -0.3107 0.4204 -0.8525
vn -0.5868 -0.2314 0.7760
vn 0.5798 -0.2214 -0.7841
vn 0.5755 -0.2280 -0.7854
vn 0.5751 -0.2284 -0.7855
vn 0.5751 -0.2284 0.7855
vn -0.5800 -0.1532 -0.8001
vn -0.5859 -0.2329 -0.7762
vn -0.5803 -0.2419 -0.7776
vn -0.5809 -0.2409 -0.7775
vn -0.8383 -0.5453 -0.0000
vn -0.3893 0.9211 0.0000
vn 0.9990 -0.0442 -0.0000
vn -0.9986 -0.0522 -0.0000
vn 0.3043 0.9526 0.0000
vn 0.3442 0.4452 -0.8267
vn -0.2337 -0.9723 0.0000
vn 0.2919 -0.9564 0.0000
vn 0.0000 -0.6962 -0.7178
vn -0.3107 0.4204 0.8525
vn 0.3442 0.4452 0.8267
vn 0.5781 -0.1636 0.7994
vn -0.0474 -0.6807 0.7310
vn 0.0854 -0.6669 0.7402
vn -0.5800 -0.1532 0.8001
vn 0.2694 0.4582 -0.8470
vn -0.3411 0.4136 -0.8441
vn -0.5868 -0.2314 -0.7760
vn 0.0854 -0.6669 -0.7402
vn -0.0474 -0.6807 -0.7310
vn 0.5806 -0.2203 -0.7839
vn 0.0000 0.7026 0.7116
vn 0.3622 0.4081 -0.8380
vn 0.0000 0.6713 -0.7412
vn -0.3251 0.4140 0.8502
usemtl Material.002
s 1
f 1/1/1 2/2/2 3/3/3
f 4/4/4 5/5/4 6/6/4
f 7/7/5 8/8/5 9/9/5
f 10/10/6 11/11/6 12/12/6
f 13/13/7 14/14/7 1/15/7
f 13/13/8 15/16/8 10/10/8
f 16/17/4 4/4/4 17/18/4
f 18/19/4 4/4/4 19/20/4
f 17/18/9 20/21/9 16/17/9
f 15/16/8 8/22/8 7/23/8
f 15/16/8 21/24/8 22/25/8
f 23/26/10 14/27/10 12/28/10
f 20/29/11 12/30/11 11/31/11
f 17/18/12 24/32/12 23/33/12
f 10/10/13 14/14/13 13/13/13
f 25/34/14 26/35/14 5/5/14
f 27/36/15 11/11/15 22/25/15
f 22/25/16 21/24/17 28/37/18
f 27/38/19 25/39/19 29/40/19
f 24/32/20 19/20/20 30/41/20
f 3/3/3 8/42/21 1/1/1
f 25/34/22 31/43/23 29/44/24
f 22/25/16 28/37/18 27/36/25
f 32/45/26 33/46/26 34/47/26
f 33/46/27 30/41/28 19/20/29
f 30/48/30 3/3/30 2/2/30
f 24/49/31 2/50/31 14/51/31
f 28/52/32 26/53/32 25/39/32
f 35/54/33 33/55/33 32/56/33
f 4/4/4 34/47/4 19/20/4
f 36/57/8 15/16/8 22/25/8
f 27/58/34 20/29/34 11/31/34
f 16/17/35 20/21/35 31/43/35
f 37/59/36 38/60/36 9/9/36
f 32/61/37 9/9/37 35/62/37
f 21/63/5 7/7/5 9/9/5
f 6/64/38 5/65/38 37/59/38
f 34/66/38 6/64/38 37/59/38
f 1/15/39 14/14/39 2/67/39
f 22/25/40 11/11/40 36/57/40
f 28/37/41 21/24/41 38/68/41
f 9/9/42 38/60/42 21/63/42
f 9/9/43 8/8/43 35/62/43
f 8/69/44 3/70/44 35/71/44
f 31/43/45 20/21/45 29/44/45
f 19/20/46 24/32/46 18/19/46
f 34/47/47 33/46/27 19/20/29
f 37/59/48 32/61/48 34/66/48
f 37/59/49 5/65/49 26/72/49
f 5/5/50 31/43/23 25/34/22
f 4/4/4 31/43/4 5/5/4
f 10/10/51 36/57/51 11/11/51
f 13/13/8 1/15/8 15/16/8
f 16/17/4 31/43/4 4/4/4
f 18/19/4 17/18/4 4/4/4
f 17/18/52 23/33/52 20/21/52
f 15/16/8 1/15/8 8/22/8
f 15/16/8 7/23/8 21/24/8
f 23/26/10 24/73/10 14/27/10
f 20/29/11 23/74/11 12/30/11
f 17/18/53 18/19/53 24/32/53
f 10/10/54 12/12/54 14/14/54
f 27/38/19 28/52/19 25/39/19
f 30/48/30 33/55/30 3/3/30
f 24/49/31 30/75/31 2/50/31
f 28/52/32 38/76/32 26/53/32
f 35/54/33 3/3/33 33/55/33
f 4/4/4 6/6/4 34/47/4
f 36/57/8 10/10/8 15/16/8
f 27/58/34 29/77/34 20/29/34
f 37/59/36 26/72/36 38/60/36
f 32/61/37 37/59/37 9/9/37
